<mxfile host="app.diagrams.net" agent="Mozilla/5.0 (Windows NT 10.0; Win64; x64) AppleWebKit/537.36 (KHTML, like Gecko) Chrome/140.0.0.0 Safari/537.36" version="28.2.5">
  <diagram name="ERD Physical - FPTU Lab Events" id="physical-erd">
    <mxGraphModel dx="1426" dy="743" grid="0" gridSize="10" guides="1" tooltips="1" connect="1" arrows="1" fold="1" page="1" pageScale="1" pageWidth="1600" pageHeight="1200" math="0" shadow="0">
      <root>
        <mxCell id="0" />
        <mxCell id="1" parent="0" />
        <mxCell id="title" value="&lt;b&gt;&lt;font style=&quot;font-size: 18px;&quot;&gt;PHYSICAL DATABASE DIAGRAM - FPTU LAB EVENTS&lt;/font&gt;&lt;/b&gt;&lt;div&gt;&lt;br/&gt;&lt;/div&gt;" style="text;html=1;strokeColor=none;fillColor=none;align=center;verticalAlign=middle;whiteSpace=wrap;rounded=0;" parent="1" vertex="1">
          <mxGeometry x="400" y="20" width="800" height="40" as="geometry" />
        </mxCell>
        <mxCell id="tbl-users" value="&lt;div style=&quot;text-align: left;&quot;&gt;&lt;b&gt;tbl_users&lt;/b&gt;&lt;/div&gt;&lt;hr size=&quot;1&quot;&gt;&lt;div style=&quot;text-align: left;&quot;&gt;id: uuid [PK]&lt;/div&gt;&lt;div style=&quot;text-align: left;&quot;&gt;email: varchar(255) [UQ, NOT NULL]&lt;/div&gt;&lt;div style=&quot;text-align: left;&quot;&gt;password_hash: text [NOT NULL]&lt;/div&gt;&lt;div style=&quot;text-align: left;&quot;&gt;full_name: varchar(255) [NOT NULL]&lt;/div&gt;&lt;div style=&quot;text-align: left;&quot;&gt;username: varchar(100) [UQ, NOT NULL]&lt;/div&gt;&lt;div style=&quot;text-align: left;&quot;&gt;mssv: varchar(50)&lt;/div&gt;&lt;div style=&quot;text-align: left;&quot;&gt;phone: varchar(20)&lt;/div&gt;&lt;div style=&quot;text-align: left;&quot;&gt;avatar_url: text&lt;/div&gt;&lt;div style=&quot;text-align: left;&quot;&gt;status: varchar(20) [DEFAULT &#39;Active&#39;]&lt;/div&gt;&lt;div style=&quot;text-align: left;&quot;&gt;last_login_at: timestamp&lt;/div&gt;&lt;div style=&quot;text-align: left;&quot;&gt;created_at: timestamp [DEFAULT now()]&lt;/div&gt;&lt;div style=&quot;text-align: left;&quot;&gt;updated_at: timestamp [DEFAULT now()]&lt;/div&gt;&lt;hr size=&quot;1&quot;&gt;&lt;div style=&quot;text-align: left;&quot;&gt;Indexes: email, username, mssv&lt;/div&gt;" style="rounded=0;whiteSpace=wrap;html=1;fillColor=#dae8fc;strokeColor=#6c8ebf;fontSize=10;spacingLeft=8;spacingRight=5;verticalAlign=top;fontFamily=Courier New;" parent="1" vertex="1">
          <mxGeometry x="40" y="90" width="260" height="240" as="geometry" />
        </mxCell>
        <mxCell id="tbl-roles" value="&lt;div style=&quot;text-align: left;&quot;&gt;&lt;b&gt;tbl_roles&lt;/b&gt;&lt;/div&gt;&lt;hr size=&quot;1&quot;&gt;&lt;div style=&quot;text-align: left;&quot;&gt;id: uuid [PK]&lt;/div&gt;&lt;div style=&quot;text-align: left;&quot;&gt;name: varchar(100) [UQ, NOT NULL]&lt;/div&gt;&lt;div style=&quot;text-align: left;&quot;&gt;description: text&lt;/div&gt;&lt;div style=&quot;text-align: left;&quot;&gt;created_at: timestamp&lt;/div&gt;&lt;div style=&quot;text-align: left;&quot;&gt;updated_at: timestamp&lt;/div&gt;&lt;hr size=&quot;1&quot;&gt;&lt;div style=&quot;text-align: left;&quot;&gt;Seed: Admin, Lecturer, Student&lt;/div&gt;" style="rounded=0;whiteSpace=wrap;html=1;fillColor=#dae8fc;strokeColor=#6c8ebf;fontSize=10;spacingLeft=8;spacingRight=5;verticalAlign=top;fontFamily=Courier New;" parent="1" vertex="1">
          <mxGeometry x="340" y="90" width="260" height="130" as="geometry" />
        </mxCell>
        <mxCell id="tbl-users-roles" value="&lt;div style=&quot;text-align: left;&quot;&gt;&lt;b&gt;tbl_users_roles&lt;/b&gt;&lt;/div&gt;&lt;hr size=&quot;1&quot;&gt;&lt;div style=&quot;text-align: left;&quot;&gt;user_id: uuid [PK, FK → tbl_users]&lt;/div&gt;&lt;div style=&quot;text-align: left;&quot;&gt;role_id: uuid [PK, FK → tbl_roles]&lt;/div&gt;&lt;hr size=&quot;1&quot;&gt;&lt;div style=&quot;text-align: left;&quot;&gt;Composite PK&lt;/div&gt;&lt;div style=&quot;text-align: left;&quot;&gt;ON DELETE CASCADE&lt;/div&gt;" style="rounded=0;whiteSpace=wrap;html=1;fillColor=#dae8fc;strokeColor=#6c8ebf;fontSize=10;spacingLeft=8;spacingRight=5;verticalAlign=top;fontFamily=Courier New;" parent="1" vertex="1">
          <mxGeometry x="340" y="323" width="260" height="110" as="geometry" />
        </mxCell>
        <mxCell id="tbl-labs" value="&lt;div style=&quot;text-align: left;&quot;&gt;&lt;b&gt;tbl_labs&lt;/b&gt;&lt;/div&gt;&lt;hr size=&quot;1&quot;&gt;&lt;div style=&quot;text-align: left;&quot;&gt;id: uuid [PK]&lt;/div&gt;&lt;div style=&quot;text-align: left;&quot;&gt;code: varchar(50) [UQ, NOT NULL]&lt;/div&gt;&lt;div style=&quot;text-align: left;&quot;&gt;name: varchar(255) [NOT NULL]&lt;/div&gt;&lt;div style=&quot;text-align: left;&quot;&gt;location: varchar(255)&lt;/div&gt;&lt;div style=&quot;text-align: left;&quot;&gt;description: text&lt;/div&gt;&lt;div style=&quot;text-align: left;&quot;&gt;capacity: int [NOT NULL, DEFAULT 0]&lt;/div&gt;&lt;div style=&quot;text-align: left;&quot;&gt;open_time: time&lt;/div&gt;&lt;div style=&quot;text-align: left;&quot;&gt;close_time: time&lt;/div&gt;&lt;div style=&quot;text-align: left;&quot;&gt;is_active: boolean [DEFAULT true]&lt;/div&gt;&lt;div style=&quot;text-align: left;&quot;&gt;created_at: timestamp&lt;/div&gt;&lt;div style=&quot;text-align: left;&quot;&gt;updated_at: timestamp&lt;/div&gt;&lt;hr size=&quot;1&quot;&gt;&lt;div style=&quot;text-align: left;&quot;&gt;Indexes: code, is_active&lt;/div&gt;" style="rounded=0;whiteSpace=wrap;html=1;fillColor=#d5e8d4;strokeColor=#82b366;fontSize=10;spacingLeft=8;spacingRight=5;verticalAlign=top;fontFamily=Courier New;" parent="1" vertex="1">
          <mxGeometry x="40" y="400" width="260" height="210" as="geometry" />
        </mxCell>
        <mxCell id="tbl-equipment" value="&lt;div style=&quot;text-align: left;&quot;&gt;&lt;b&gt;tbl_equipment&lt;/b&gt;&lt;/div&gt;&lt;hr size=&quot;1&quot;&gt;&lt;div style=&quot;text-align: left;&quot;&gt;id: uuid [PK]&lt;/div&gt;&lt;div style=&quot;text-align: left;&quot;&gt;code: varchar(50) [UQ, NOT NULL]&lt;/div&gt;&lt;div style=&quot;text-align: left;&quot;&gt;name: varchar(255) [NOT NULL]&lt;/div&gt;&lt;div style=&quot;text-align: left;&quot;&gt;category: varchar(100)&lt;/div&gt;&lt;div style=&quot;text-align: left;&quot;&gt;serial_number: varchar(100) [UQ]&lt;/div&gt;&lt;div style=&quot;text-align: left;&quot;&gt;quantity_total: int [DEFAULT 0]&lt;/div&gt;&lt;div style=&quot;text-align: left;&quot;&gt;quantity_available: int [DEFAULT 0]&lt;/div&gt;&lt;div style=&quot;text-align: left;&quot;&gt;status: varchar(20) [DEFAULT &#39;Available&#39;]&lt;/div&gt;&lt;div style=&quot;text-align: left;&quot;&gt;notes: text&lt;/div&gt;&lt;div style=&quot;text-align: left;&quot;&gt;created_at: timestamp&lt;/div&gt;&lt;div style=&quot;text-align: left;&quot;&gt;updated_at: timestamp&lt;/div&gt;&lt;hr size=&quot;1&quot;&gt;&lt;div style=&quot;text-align: left;&quot;&gt;Indexes: code, status&lt;/div&gt;" style="rounded=0;whiteSpace=wrap;html=1;fillColor=#d5e8d4;strokeColor=#82b366;fontSize=10;spacingLeft=8;spacingRight=5;verticalAlign=top;fontFamily=Courier New;" parent="1" vertex="1">
          <mxGeometry x="1009" y="680" width="260" height="210" as="geometry" />
        </mxCell>
        <mxCell id="tbl-bookings" value="&lt;div style=&quot;text-align: left;&quot;&gt;&lt;b&gt;tbl_bookings&lt;/b&gt;&lt;/div&gt;&lt;hr size=&quot;1&quot;&gt;&lt;div style=&quot;text-align: left;&quot;&gt;id: uuid [PK]&lt;/div&gt;&lt;div style=&quot;text-align: left;&quot;&gt;lab_id: uuid [FK → tbl_labs]&lt;/div&gt;&lt;div style=&quot;text-align: left;&quot;&gt;user_id: uuid [FK → tbl_users]&lt;/div&gt;&lt;div style=&quot;text-align: left;&quot;&gt;requester_id: uuid [FK → tbl_users]&lt;/div&gt;&lt;div style=&quot;text-align: left;&quot;&gt;title: varchar(255) [NOT NULL]&lt;/div&gt;&lt;div style=&quot;text-align: left;&quot;&gt;purpose: text&lt;/div&gt;&lt;div style=&quot;text-align: left;&quot;&gt;participants: int&lt;/div&gt;&lt;div style=&quot;text-align: left;&quot;&gt;start_at: timestamp [NOT NULL]&lt;/div&gt;&lt;div style=&quot;text-align: left;&quot;&gt;end_at: timestamp [NOT NULL]&lt;/div&gt;&lt;div style=&quot;text-align: left;&quot;&gt;status: varchar(20) [DEFAULT &#39;Pending&#39;]&lt;/div&gt;&lt;div style=&quot;text-align: left;&quot;&gt;notes: text&lt;/div&gt;&lt;div style=&quot;text-align: left;&quot;&gt;created_at: timestamp&lt;/div&gt;&lt;div style=&quot;text-align: left;&quot;&gt;updated_at: timestamp&lt;/div&gt;&lt;hr size=&quot;1&quot;&gt;&lt;div style=&quot;text-align: left;&quot;&gt;Indexes: lab_id, user_id, status&lt;/div&gt;&lt;div style=&quot;text-align: left;&quot;&gt;Composite: (lab_id, start_at, end_at)&lt;/div&gt;&lt;div style=&quot;text-align: left;&quot;&gt;Check: end_at &gt; start_at&lt;/div&gt;" style="rounded=0;whiteSpace=wrap;html=1;fillColor=#fff2cc;strokeColor=#d6b656;fontSize=10;spacingLeft=8;spacingRight=5;verticalAlign=top;fontFamily=Courier New;" parent="1" vertex="1">
          <mxGeometry x="576" y="400" width="280" height="280" as="geometry" />
        </mxCell>
        <mxCell id="tbl-approvals" value="&lt;div style=&quot;text-align: left;&quot;&gt;&lt;b&gt;tbl_approvals&lt;/b&gt;&lt;/div&gt;&lt;hr size=&quot;1&quot;&gt;&lt;div style=&quot;text-align: left;&quot;&gt;id: uuid [PK]&lt;/div&gt;&lt;div style=&quot;text-align: left;&quot;&gt;booking_id: uuid [FK → tbl_bookings]&lt;/div&gt;&lt;div style=&quot;text-align: left;&quot;&gt;approver_id: uuid [FK → tbl_users]&lt;/div&gt;&lt;div style=&quot;text-align: left;&quot;&gt;level: int [NOT NULL]&lt;/div&gt;&lt;div style=&quot;text-align: left;&quot;&gt;decision: varchar(20) [DEFAULT &#39;Pending&#39;]&lt;/div&gt;&lt;div style=&quot;text-align: left;&quot;&gt;comment: text&lt;/div&gt;&lt;div style=&quot;text-align: left;&quot;&gt;decided_at: timestamp&lt;/div&gt;&lt;div style=&quot;text-align: left;&quot;&gt;created_at: timestamp&lt;/div&gt;&lt;div style=&quot;text-align: left;&quot;&gt;updated_at: timestamp&lt;/div&gt;&lt;hr size=&quot;1&quot;&gt;&lt;div style=&quot;text-align: left;&quot;&gt;Indexes: booking_id, approver_id&lt;/div&gt;" style="rounded=0;whiteSpace=wrap;html=1;fillColor=#fff2cc;strokeColor=#d6b656;fontSize=10;spacingLeft=8;spacingRight=5;verticalAlign=top;fontFamily=Courier New;" parent="1" vertex="1">
          <mxGeometry x="576" y="715" width="280" height="190" as="geometry" />
        </mxCell>
        <mxCell id="tbl-events" value="&lt;div style=&quot;text-align: left;&quot;&gt;&lt;b&gt;tbl_events&lt;/b&gt;&lt;/div&gt;&lt;hr size=&quot;1&quot;&gt;&lt;div style=&quot;text-align: left;&quot;&gt;id: uuid [PK]&lt;/div&gt;&lt;div style=&quot;text-align: left;&quot;&gt;organizer_id: uuid [FK → tbl_users]&lt;/div&gt;&lt;div style=&quot;text-align: left;&quot;&gt;title: varchar(255) [NOT NULL]&lt;/div&gt;&lt;div style=&quot;text-align: left;&quot;&gt;description: text&lt;/div&gt;&lt;div style=&quot;text-align: left;&quot;&gt;capacity: int [NOT NULL, DEFAULT 0]&lt;/div&gt;&lt;div style=&quot;text-align: left;&quot;&gt;start_at: timestamp [NOT NULL]&lt;/div&gt;&lt;div style=&quot;text-align: left;&quot;&gt;end_at: timestamp [NOT NULL]&lt;/div&gt;&lt;div style=&quot;text-align: left;&quot;&gt;status: varchar(20) [DEFAULT &#39;Draft&#39;]&lt;/div&gt;&lt;div style=&quot;text-align: left;&quot;&gt;is_public: boolean [DEFAULT true]&lt;/div&gt;&lt;div style=&quot;text-align: left;&quot;&gt;cover_url: text&lt;/div&gt;&lt;div style=&quot;text-align: left;&quot;&gt;recurrence_rule: text&lt;/div&gt;&lt;div style=&quot;text-align: left;&quot;&gt;deadline: timestamp&lt;/div&gt;&lt;div style=&quot;text-align: left;&quot;&gt;created_at: timestamp&lt;/div&gt;&lt;div style=&quot;text-align: left;&quot;&gt;updated_at: timestamp&lt;/div&gt;&lt;hr size=&quot;1&quot;&gt;&lt;div style=&quot;text-align: left;&quot;&gt;Indexes: organizer_id, status, start_at&lt;/div&gt;&lt;div style=&quot;text-align: left;&quot;&gt;Check: end_at &gt; start_at&lt;/div&gt;" style="rounded=0;whiteSpace=wrap;html=1;fillColor=#e1d5e7;strokeColor=#9673a6;fontSize=10;spacingLeft=8;spacingRight=5;verticalAlign=top;fontFamily=Courier New;" parent="1" vertex="1">
          <mxGeometry x="960" y="90" width="300" height="280" as="geometry" />
        </mxCell>
        <mxCell id="tbl-registrations" value="&lt;div style=&quot;text-align: left;&quot;&gt;&lt;b&gt;tbl_event_registrations&lt;/b&gt;&lt;/div&gt;&lt;hr size=&quot;1&quot;&gt;&lt;div style=&quot;text-align: left;&quot;&gt;id: uuid [PK]&lt;/div&gt;&lt;div style=&quot;text-align: left;&quot;&gt;event_id: uuid [FK → tbl_events]&lt;/div&gt;&lt;div style=&quot;text-align: left;&quot;&gt;user_id: uuid [FK → tbl_users]&lt;/div&gt;&lt;div style=&quot;text-align: left;&quot;&gt;registration_status: varchar(20)&lt;/div&gt;&lt;div style=&quot;text-align: left;&quot;&gt;checkin_code: varchar(50) [UQ]&lt;/div&gt;&lt;div style=&quot;text-align: left;&quot;&gt;status: varchar(50)&lt;/div&gt;&lt;div style=&quot;text-align: left;&quot;&gt;checked_in_at: timestamp&lt;/div&gt;&lt;div style=&quot;text-align: left;&quot;&gt;checked_out_at: timestamp&lt;/div&gt;&lt;div style=&quot;text-align: left;&quot;&gt;created_at: timestamp&lt;/div&gt;&lt;div style=&quot;text-align: left;&quot;&gt;updated_at: timestamp&lt;/div&gt;&lt;hr size=&quot;1&quot;&gt;&lt;div style=&quot;text-align: left;&quot;&gt;Indexes: event_id, user_id&lt;/div&gt;&lt;div style=&quot;text-align: left;&quot;&gt;Unique: (event_id, user_id)&lt;/div&gt;" style="rounded=0;whiteSpace=wrap;html=1;fillColor=#e1d5e7;strokeColor=#9673a6;fontSize=10;spacingLeft=8;spacingRight=5;verticalAlign=top;fontFamily=Courier New;" parent="1" vertex="1">
          <mxGeometry x="960" y="410" width="300" height="210" as="geometry" />
        </mxCell>
        <mxCell id="tbl-notifications" value="&lt;div style=&quot;text-align: left;&quot;&gt;&lt;b&gt;tbl_notifications&lt;/b&gt;&lt;/div&gt;&lt;hr size=&quot;1&quot;&gt;&lt;div style=&quot;text-align: left;&quot;&gt;id: uuid [PK]&lt;/div&gt;&lt;div style=&quot;text-align: left;&quot;&gt;user_id: uuid [FK → tbl_users]&lt;/div&gt;&lt;div style=&quot;text-align: left;&quot;&gt;title: varchar(255) [NOT NULL]&lt;/div&gt;&lt;div style=&quot;text-align: left;&quot;&gt;body: text&lt;/div&gt;&lt;div style=&quot;text-align: left;&quot;&gt;channel: varchar(20) [NOT NULL]&lt;/div&gt;&lt;div style=&quot;text-align: left;&quot;&gt;type: varchar(100)&lt;/div&gt;&lt;div style=&quot;text-align: left;&quot;&gt;scheduled_at: timestamp&lt;/div&gt;&lt;div style=&quot;text-align: left;&quot;&gt;sent_at: timestamp&lt;/div&gt;&lt;div style=&quot;text-align: left;&quot;&gt;created_at: timestamp&lt;/div&gt;&lt;div style=&quot;text-align: left;&quot;&gt;updated_at: timestamp&lt;/div&gt;&lt;hr size=&quot;1&quot;&gt;&lt;div style=&quot;text-align: left;&quot;&gt;Indexes: user_id, sent_at&lt;/div&gt;" style="rounded=0;whiteSpace=wrap;html=1;fillColor=#f5f5f5;strokeColor=#666666;fontSize=10;spacingLeft=8;spacingRight=5;verticalAlign=top;fontFamily=Courier New;" parent="1" vertex="1">
          <mxGeometry x="668" y="175" width="260" height="200" as="geometry" />
        </mxCell>
        <mxCell id="tbl-audit" value="&lt;div style=&quot;text-align: left;&quot;&gt;&lt;b&gt;tbl_audit_logs&lt;/b&gt;&lt;/div&gt;&lt;hr size=&quot;1&quot;&gt;&lt;div style=&quot;text-align: left;&quot;&gt;id: uuid [PK]&lt;/div&gt;&lt;div style=&quot;text-align: left;&quot;&gt;user_id: uuid [FK → tbl_users]&lt;/div&gt;&lt;div style=&quot;text-align: left;&quot;&gt;action: varchar(100) [NOT NULL]&lt;/div&gt;&lt;div style=&quot;text-align: left;&quot;&gt;entity: varchar(100) [NOT NULL]&lt;/div&gt;&lt;div style=&quot;text-align: left;&quot;&gt;entity_id: uuid&lt;/div&gt;&lt;div style=&quot;text-align: left;&quot;&gt;module_id: varchar(100)&lt;/div&gt;&lt;div style=&quot;text-align: left;&quot;&gt;ip_address: varchar(50)&lt;/div&gt;&lt;div style=&quot;text-align: left;&quot;&gt;created_at: timestamp&lt;/div&gt;&lt;hr size=&quot;1&quot;&gt;&lt;div style=&quot;text-align: left;&quot;&gt;Indexes: user_id, action, entity&lt;/div&gt;&lt;div style=&quot;text-align: left;&quot;&gt;Retention: 12 months minimum&lt;/div&gt;" style="rounded=0;whiteSpace=wrap;html=1;fillColor=#f5f5f5;strokeColor=#666666;fontSize=10;spacingLeft=8;spacingRight=5;verticalAlign=top;fontFamily=Courier New;" parent="1" vertex="1">
          <mxGeometry x="393" y="915" width="260" height="190" as="geometry" />
        </mxCell>
        <mxCell id="fk-user-role-1" value="" style="endArrow=ERmany;startArrow=ERone;html=1;exitX=1;exitY=0.25;exitDx=0;exitDy=0;entryX=0;entryY=0.5;entryDx=0;entryDy=0;strokeWidth=2;endFill=0;startFill=0;" parent="1" source="tbl-users" target="tbl-users-roles" edge="1">
          <mxGeometry width="50" height="50" relative="1" as="geometry">
            <mxPoint x="700" y="500" as="sourcePoint" />
            <mxPoint x="750" y="450" as="targetPoint" />
          </mxGeometry>
        </mxCell>
        <mxCell id="fk-role-user-1" value="" style="endArrow=ERmany;startArrow=ERone;html=1;exitX=0.5;exitY=1;exitDx=0;exitDy=0;entryX=0.5;entryY=0;entryDx=0;entryDy=0;strokeWidth=2;endFill=0;startFill=0;" parent="1" source="tbl-roles" target="tbl-users-roles" edge="1">
          <mxGeometry width="50" height="50" relative="1" as="geometry">
            <mxPoint x="700" y="400" as="sourcePoint" />
            <mxPoint x="750" y="350" as="targetPoint" />
          </mxGeometry>
        </mxCell>
        <mxCell id="fk-lab-booking" value="" style="endArrow=ERmany;startArrow=ERone;html=1;exitX=1;exitY=0.5;exitDx=0;exitDy=0;entryX=0;entryY=0.25;entryDx=0;entryDy=0;strokeWidth=2;endFill=0;startFill=0;" parent="1" source="tbl-labs" target="tbl-bookings" edge="1">
          <mxGeometry width="50" height="50" relative="1" as="geometry">
            <mxPoint x="500" y="600" as="sourcePoint" />
            <mxPoint x="550" y="550" as="targetPoint" />
          </mxGeometry>
        </mxCell>
        <mxCell id="fk-lab-booking-label" value="lab_id" style="edgeLabel;html=1;align=center;verticalAlign=middle;resizable=0;points=[];fontSize=9;fontFamily=Courier New;fontColor=#666666;" parent="fk-lab-booking" vertex="1" connectable="0">
          <mxGeometry x="-0.3" y="1" relative="1" as="geometry">
            <mxPoint x="15" y="-9" as="offset" />
          </mxGeometry>
        </mxCell>
        <mxCell id="fk-user-booking" value="" style="endArrow=ERmany;startArrow=ERone;html=1;exitX=0.5;exitY=1;exitDx=0;exitDy=0;entryX=0;entryY=0.5;entryDx=0;entryDy=0;strokeWidth=2;endFill=0;startFill=0;edgeStyle=orthogonalEdgeStyle;" parent="1" source="tbl-users" target="tbl-bookings" edge="1">
          <mxGeometry width="50" height="50" relative="1" as="geometry">
            <mxPoint x="500" y="500" as="sourcePoint" />
            <mxPoint x="550" y="450" as="targetPoint" />
          </mxGeometry>
        </mxCell>
        <mxCell id="fk-user-booking-label" value="user_id" style="edgeLabel;html=1;align=center;verticalAlign=middle;resizable=0;points=[];fontSize=9;fontFamily=Courier New;fontColor=#666666;" parent="fk-user-booking" vertex="1" connectable="0">
          <mxGeometry x="-0.3" y="1" relative="1" as="geometry">
            <mxPoint x="10" y="-9" as="offset" />
          </mxGeometry>
        </mxCell>
        <mxCell id="fk-booking-approval" value="" style="endArrow=ERmany;startArrow=ERone;html=1;exitX=0.5;exitY=1;exitDx=0;exitDy=0;entryX=0.5;entryY=0;entryDx=0;entryDy=0;strokeWidth=2;endFill=0;startFill=0;" parent="1" source="tbl-bookings" target="tbl-approvals" edge="1">
          <mxGeometry width="50" height="50" relative="1" as="geometry">
            <mxPoint x="800" y="800" as="sourcePoint" />
            <mxPoint x="850" y="750" as="targetPoint" />
          </mxGeometry>
        </mxCell>
        <mxCell id="fk-booking-approval-label" value="booking_id" style="edgeLabel;html=1;align=center;verticalAlign=middle;resizable=0;points=[];fontSize=9;fontFamily=Courier New;fontColor=#666666;" parent="fk-booking-approval" vertex="1" connectable="0">
          <mxGeometry x="-0.2" y="1" relative="1" as="geometry">
            <mxPoint x="25" y="5" as="offset" />
          </mxGeometry>
        </mxCell>
        <mxCell id="fk-user-event" value="" style="endArrow=ERmany;startArrow=ERone;html=1;exitX=1;exitY=0.5;exitDx=0;exitDy=0;entryX=0;entryY=0.25;entryDx=0;entryDy=0;strokeWidth=2;endFill=0;startFill=0;edgeStyle=orthogonalEdgeStyle;" parent="1" source="tbl-users" target="tbl-events" edge="1">
          <mxGeometry width="50" height="50" relative="1" as="geometry">
            <mxPoint x="700" y="400" as="sourcePoint" />
            <mxPoint x="750" y="350" as="targetPoint" />
          </mxGeometry>
        </mxCell>
        <mxCell id="fk-user-event-label" value="organizer_id" style="edgeLabel;html=1;align=center;verticalAlign=middle;resizable=0;points=[];fontSize=9;fontFamily=Courier New;fontColor=#666666;" parent="fk-user-event" vertex="1" connectable="0">
          <mxGeometry x="-0.3" y="1" relative="1" as="geometry">
            <mxPoint x="20" y="-9" as="offset" />
          </mxGeometry>
        </mxCell>
        <mxCell id="fk-event-registration" value="" style="endArrow=ERmany;startArrow=ERone;html=1;exitX=0.5;exitY=1;exitDx=0;exitDy=0;entryX=0.5;entryY=0;entryDx=0;entryDy=0;strokeWidth=2;endFill=0;startFill=0;" parent="1" source="tbl-events" target="tbl-registrations" edge="1">
          <mxGeometry width="50" height="50" relative="1" as="geometry">
            <mxPoint x="900" y="500" as="sourcePoint" />
            <mxPoint x="950" y="450" as="targetPoint" />
          </mxGeometry>
        </mxCell>
        <mxCell id="fk-event-registration-label" value="event_id" style="edgeLabel;html=1;align=center;verticalAlign=middle;resizable=0;points=[];fontSize=9;fontFamily=Courier New;fontColor=#666666;" parent="fk-event-registration" vertex="1" connectable="0">
          <mxGeometry x="-0.2" y="1" relative="1" as="geometry">
            <mxPoint x="20" y="5" as="offset" />
          </mxGeometry>
        </mxCell>
        <mxCell id="fk-user-notification" value="" style="endArrow=ERmany;startArrow=ERone;html=1;exitX=1;exitY=0.75;exitDx=0;exitDy=0;entryX=0;entryY=0.5;entryDx=0;entryDy=0;strokeWidth=2;endFill=0;startFill=0;edgeStyle=orthogonalEdgeStyle;" parent="1" source="tbl-users" target="tbl-notifications" edge="1">
          <mxGeometry width="50" height="50" relative="1" as="geometry">
            <mxPoint x="1000" y="400" as="sourcePoint" />
            <mxPoint x="1050" y="350" as="targetPoint" />
          </mxGeometry>
        </mxCell>
        <mxCell id="fk-user-notification-label" value="user_id" style="edgeLabel;html=1;align=center;verticalAlign=middle;resizable=0;points=[];fontSize=9;fontFamily=Courier New;fontColor=#666666;" parent="fk-user-notification" vertex="1" connectable="0">
          <mxGeometry x="-0.3" y="1" relative="1" as="geometry">
            <mxPoint x="10" y="-9" as="offset" />
          </mxGeometry>
        </mxCell>
        <mxCell id="legend-box" value="&lt;b&gt;LEGEND&lt;/b&gt;&lt;hr&gt;&lt;div style=&quot;text-align: left;&quot;&gt;[PK] = Primary Key&lt;/div&gt;&lt;div style=&quot;text-align: left;&quot;&gt;[FK] = Foreign Key&lt;/div&gt;&lt;div style=&quot;text-align: left;&quot;&gt;[UQ] = Unique Constraint&lt;/div&gt;&lt;div style=&quot;text-align: left;&quot;&gt;[NOT NULL] = Required Field&lt;/div&gt;&lt;div style=&quot;text-align: left;&quot;&gt;[DEFAULT x] = Default Value&lt;/div&gt;&lt;div style=&quot;text-align: left;&quot;&gt;Indexes = Database Index&lt;/div&gt;&lt;div style=&quot;text-align: left;&quot;&gt;Check = Check Constraint&lt;/div&gt;&lt;div style=&quot;text-align: left;&quot;&gt;Composite = Multi-column&lt;/div&gt;" style="rounded=0;whiteSpace=wrap;html=1;fillColor=#f5f5f5;strokeColor=#666666;fontSize=10;spacingLeft=10;verticalAlign=top;fontFamily=Courier New;" parent="1" vertex="1">
          <mxGeometry x="40" y="660" width="260" height="160" as="geometry" />
        </mxCell>
        <mxCell id="db-info" value="&lt;b&gt;DATABASE INFO&lt;/b&gt;&lt;hr&gt;&lt;div style=&quot;text-align: left;&quot;&gt;Type: PostgreSQL 15+&lt;/div&gt;&lt;div style=&quot;text-align: left;&quot;&gt;Host: Supabase&lt;/div&gt;&lt;div style=&quot;text-align: left;&quot;&gt;Backend: MonsterASP.NET&lt;/div&gt;&lt;div style=&quot;text-align: left;&quot;&gt;ORM: Entity Framework Core&lt;/div&gt;&lt;div style=&quot;text-align: left;&quot;&gt;Provider: Npgsql&lt;/div&gt;&lt;div style=&quot;text-align: left;&quot;&gt;Total Tables: 19&lt;/div&gt;&lt;div style=&quot;text-align: left;&quot;&gt;Total FKs: 15+&lt;/div&gt;&lt;div style=&quot;text-align: left;&quot;&gt;Naming: snake_case&lt;/div&gt;" style="rounded=0;whiteSpace=wrap;html=1;fillColor=#fff2cc;strokeColor=#d6b656;fontSize=10;spacingLeft=10;verticalAlign=top;fontFamily=Courier New;" parent="1" vertex="1">
          <mxGeometry x="40" y="860" width="260" height="160" as="geometry" />
        </mxCell>
        <mxCell id="color-title" value="&lt;b&gt;COLOR CODING&lt;/b&gt;" style="text;html=1;strokeColor=none;fillColor=none;align=left;verticalAlign=middle;whiteSpace=wrap;rounded=0;fontSize=11;fontStyle=1;fontFamily=Courier New;" parent="1" vertex="1">
          <mxGeometry x="340" y="660" width="150" height="20" as="geometry" />
        </mxCell>
        <mxCell id="color-1" value="Users &amp; Auth" style="rounded=0;whiteSpace=wrap;html=1;fillColor=#dae8fc;strokeColor=#6c8ebf;fontSize=10;fontFamily=Courier New;" parent="1" vertex="1">
          <mxGeometry x="340" y="690" width="120" height="25" as="geometry" />
        </mxCell>
        <mxCell id="color-2" value="Labs &amp; Resources" style="rounded=0;whiteSpace=wrap;html=1;fillColor=#d5e8d4;strokeColor=#82b366;fontSize=10;fontFamily=Courier New;" parent="1" vertex="1">
          <mxGeometry x="340" y="725" width="120" height="25" as="geometry" />
        </mxCell>
        <mxCell id="color-3" value="Bookings" style="rounded=0;whiteSpace=wrap;html=1;fillColor=#fff2cc;strokeColor=#d6b656;fontSize=10;fontFamily=Courier New;" parent="1" vertex="1">
          <mxGeometry x="340" y="760" width="120" height="25" as="geometry" />
        </mxCell>
        <mxCell id="color-4" value="Events" style="rounded=0;whiteSpace=wrap;html=1;fillColor=#e1d5e7;strokeColor=#9673a6;fontSize=10;fontFamily=Courier New;" parent="1" vertex="1">
          <mxGeometry x="340" y="795" width="120" height="25" as="geometry" />
        </mxCell>
        <mxCell id="color-5" value="Supporting" style="rounded=0;whiteSpace=wrap;html=1;fillColor=#f5f5f5;strokeColor=#666666;fontSize=10;fontFamily=Courier New;" parent="1" vertex="1">
          <mxGeometry x="340" y="830" width="120" height="25" as="geometry" />
        </mxCell>
      </root>
    </mxGraphModel>
  </diagram>
</mxfile>
